<svg xmlns="http://www.w3.org/2000/svg" viewBox="0 0 416 416">
    <path d="M368.5 8.6c-53.6 14.6-104.9 40.8-150 76.8-42.8 34.1-83 78.4-117.1 129.1C90.9 230.1 70 264.2 70 265.8c0 .5 6 1.2 13.4 1.6 20.9 1 59.3 5 60.5 6.2.2.2-4.9.4-11.5.4-14 0-35.1 1.4-51.9 3.5-20 2.5-17.8 1.4-23.5 12.4-15.2 28.8-29.9 62.5-43.9 100.9l-3 8.2 3.1 1.6c13.6 7 32.8 6.7 47.6-.8 12.7-6.4 25.9-21.6 30-34.3 1.6-5.2 3.2-7.2 3.2-4.1 0 .7 1.9 5.1 4.1 9.6 9.3 18.6 27 29.8 48.5 30.8 12.6.5 19.2-.8 29.7-6 13.3-6.6 24.1-19.3 29.2-34.3.5-1.6 1.2-.6 3 4.4 5.8 15.8 19.1 28.3 36.4 34.3 9.4 3.3 26.6 3.2 36.2 0 17.2-5.9 30.6-18.5 35.7-33.5l1.9-5.7 2.7 7c11 28 42.3 43.8 70 35.5 6.2-1.9 18.6-8.6 18.6-10 0-.7-2.7-6.5-5.9-13.1-11-22-18.4-43.1-25.6-72.9-10.5-43-14.7-82.2-14.8-136.8l-.1-29.8-8 .7c-4.5.3-13 1.4-19.1 2.4-6 1-11.1 1.6-11.3 1.5-.6-.5 11.8-7.6 20-11.5 4.6-2.1 10.8-4.6 13.9-5.4l5.6-1.7.7-13.2c1.4-25.9 9.4-90.2 13.2-105.3.7-2.9 1.2-2.9-10.1.2z"/>
</svg>
