<?xml version="1.0" encoding="utf-8"?>
<!-- Generator: Adobe Illustrator 21.0.0, SVG Export Plug-In . SVG Version: 6.00 Build 0)  -->
<svg version="1.1" id="Layer_1" xmlns="http://www.w3.org/2000/svg" xmlns:xlink="http://www.w3.org/1999/xlink" x="0px" y="0px"
	 viewBox="0 0 512 512" style="enable-background:new 0 0 512 512;" xml:space="preserve" fill="current" stroke="current" >
<g>
	<path d="M154.3,382.8c-5.6-3.8-11.9-6.8-18.5-8.9c-1.1-0.3-2.2-0.7-3.3-0.9V156.8c3.3-0.9,6.6-2,9.7-3.3
		c12.7-5.4,23.4-14.3,31.1-25.6c3.8-5.6,6.8-11.9,8.9-18.5c2.1-6.6,3.2-13.7,3.2-21c0-9.7-2-19-5.6-27.5
		c-5.4-12.7-14.3-23.4-25.6-31.1c-5.6-3.8-11.9-6.8-18.5-8.9c-6.6-2.1-13.7-3.2-21-3.2c-9.7,0-19,2-27.5,5.6
		c-12.7,5.4-23.4,14.3-31.1,25.6c-3.8,5.6-6.8,11.9-8.9,18.5C45.1,74,44,81.1,44,88.4c0,9.7,2,19,5.6,27.5
		c5.4,12.7,14.3,23.4,25.6,31.1c5.6,3.8,11.9,6.8,18.5,8.9c1.1,0.4,2.3,0.7,3.4,1V373c-3.4,0.9-6.6,2-9.8,3.3
		c-12.7,5.4-23.4,14.3-31.1,25.6c-3.8,5.6-6.8,11.9-8.9,18.5c-2.1,6.6-3.2,13.7-3.2,21c0,9.7,2,19,5.6,27.5
		c5.4,12.7,14.3,23.4,25.6,31.1c5.6,3.8,11.9,6.8,18.5,8.9c6.6,2.1,13.7,3.2,21,3.2c9.7,0,19-2,27.5-5.6
		c12.7-5.4,23.4-14.3,31.1-25.6c3.8-5.6,6.8-11.9,8.9-18.5c2.1-6.6,3.2-13.7,3.2-21c0-9.7-2-19-5.6-27.5
		C174.5,401.2,165.6,390.5,154.3,382.8z M85.5,108c-1.9-2.8-3.4-5.9-4.4-9.2s-1.6-6.8-1.6-10.5c0-4.9,1-9.5,2.8-13.7
		C84.9,68.2,89.4,62.8,95,59c2.8-1.9,5.9-3.4,9.2-4.4S111,53,114.7,53V35.3h0.1V53c4.9,0,9.5,1,13.7,2.8c6.3,2.7,11.7,7.2,15.6,12.8
		c1.9,2.8,3.4,5.9,4.4,9.2s1.6,6.8,1.6,10.5c0,4.9-1,9.5-2.8,13.7c-2.7,6.3-7.2,11.7-12.8,15.6c-2.8,1.9-5.9,3.4-9.2,4.4
		c-3,0.9-6.1,1.4-9.4,1.6c-0.4,0-0.7-0.1-1.1-0.1c-0.4,0-0.9,0-1.3,0.1c-4.4-0.2-8.6-1.1-12.4-2.8C94.8,118.1,89.4,113.6,85.5,108z
		 M147.3,455.1c-2.7,6.3-7.2,11.7-12.8,15.6c-2.8,1.9-5.9,3.4-9.2,4.4c-3.3,1-6.8,1.6-10.5,1.6c-4.9,0-9.5-1-13.7-2.8
		c-6.3-2.7-11.7-7.2-15.6-12.8c-1.9-2.8-3.4-5.9-4.4-9.2s-1.6-6.8-1.6-10.5c0-4.9,1-9.5,2.8-13.7c2.7-6.3,7.2-11.7,12.8-15.6
		c2.8-1.9,5.9-3.4,9.2-4.4c3.3-1,6.8-1.6,10.5-1.6c4.9,0,9.5,1,13.7,2.8c6.3,2.7,11.7,7.2,15.6,12.8c1.9,2.8,3.4,5.9,4.4,9.2
		s1.6,6.8,1.6,10.5C150.1,446.3,149.1,450.9,147.3,455.1z"/>
	<path d="M462.3,413.9c-5.4-12.7-14.3-23.4-25.6-31.1c-5.6-3.8-11.9-6.8-18.5-8.9c-1.1-0.3-2.1-0.6-3.2-0.9V154.4
		c0-11.5-2.3-22.6-6.6-32.6c-6.4-15.1-17-27.8-30.4-36.9c-6.7-4.5-14.1-8.1-22-10.6c-7.9-2.5-16.3-3.8-24.9-3.8h-67.6l40.3-40.3
		c6.9-6.9,6.9-18.1,0-25c-6.9-6.9-18.1-6.9-25,0l-70.6,70.6c-6.9,6.9-6.9,18.1,0,25l70.6,70.6c6.9,6.9,18.1,6.9,25,0
		c6.9-6.9,6.9-18.1,0-25l-40.5-40.5H331c6.8,0,13.1,1.4,18.9,3.8c8.7,3.7,16.1,9.9,21.4,17.6c2.6,3.9,4.7,8.1,6.1,12.7
		c1.4,4.5,2.2,9.4,2.2,14.4v218.5c-3.4,0.9-6.7,2-9.9,3.4c-12.7,5.4-23.4,14.3-31.1,25.6c-3.8,5.6-6.8,11.9-8.9,18.5
		c-2.1,6.6-3.2,13.7-3.2,21c0,9.7,2,19,5.6,27.5c5.4,12.7,14.3,23.4,25.6,31.1c5.6,3.8,11.9,6.8,18.5,8.9c6.6,2.1,13.7,3.2,21,3.2
		c9.7,0,19-2,27.5-5.6c12.7-5.4,23.4-14.3,31.1-25.6c3.8-5.6,6.8-11.9,8.9-18.5c2.1-6.6,3.2-13.7,3.2-21
		C467.9,431.7,465.9,422.4,462.3,413.9z M429.7,455.1c-2.7,6.3-7.2,11.7-12.8,15.6c-2.8,1.9-5.9,3.4-9.2,4.4s-6.8,1.6-10.5,1.6
		c-4.9,0-9.5-1-13.7-2.8c-6.3-2.7-11.7-7.2-15.6-12.8c-1.9-2.8-3.4-5.9-4.4-9.2s-1.6-6.8-1.6-10.5c0-4.9,1-9.5,2.8-13.7
		c2.7-6.3,7.2-11.7,12.8-15.6c2.8-1.9,5.9-3.4,9.2-4.4s6.8-1.6,10.5-1.6c4.9,0,9.5,1,13.7,2.8c6.3,2.7,11.7,7.2,15.6,12.8
		c1.9,2.8,3.4,5.9,4.4,9.2s1.6,6.8,1.6,10.5C432.5,446.3,431.5,450.9,429.7,455.1z"/>
</g>
</svg>
